<svg width="29" height="29" viewBox="0 0 29 29" fill="none" xmlns="http://www.w3.org/2000/svg">
<circle cx="14.4507" cy="14.8014" r="13.6249" stroke="#F53838" stroke-width="0.939651"/>
<path d="M18.5617 14.2139H11.5965L13.7283 11.6533C13.828 11.5334 13.876 11.3788 13.8617 11.2235C13.8473 11.0682 13.7719 10.9249 13.652 10.8253C13.5321 10.7256 13.3774 10.6776 13.2221 10.6919C13.0669 10.7063 12.9236 10.7817 12.8239 10.9016L9.88752 14.4253C9.86776 14.4533 9.85009 14.4828 9.83466 14.5134C9.83466 14.5428 9.83466 14.5604 9.79355 14.5897C9.76693 14.6571 9.75299 14.7288 9.75244 14.8012C9.75299 14.8736 9.76693 14.9452 9.79355 15.0126C9.79355 15.0419 9.79355 15.0596 9.83466 15.0889C9.85009 15.1196 9.86776 15.149 9.88752 15.177L12.8239 18.7007C12.8791 18.767 12.9483 18.8203 13.0264 18.8569C13.1046 18.8934 13.1899 18.9123 13.2761 18.9121C13.4134 18.9124 13.5463 18.8646 13.652 18.7771C13.7115 18.7278 13.7606 18.6672 13.7966 18.5989C13.8327 18.5306 13.8549 18.4558 13.862 18.3789C13.8691 18.3019 13.8609 18.2244 13.838 18.1506C13.815 18.0769 13.7778 18.0083 13.7283 17.949L11.5965 15.3884H18.5617C18.7174 15.3884 18.8668 15.3266 18.9769 15.2164C19.0871 15.1063 19.149 14.9569 19.149 14.8012C19.149 14.6454 19.0871 14.496 18.9769 14.3859C18.8668 14.2758 18.7174 14.2139 18.5617 14.2139Z" fill="#F53838"/>
</svg>
