<svg width="12" height="12" viewBox="0 0 12 12" fill="none" xmlns="http://www.w3.org/2000/svg">
<path d="M5.74074 1.27414C3.15012 1.27414 1.04248 3.38178 1.04248 5.9724C1.04248 8.56302 3.15012 10.6707 5.74074 10.6707C8.33136 10.6707 10.439 8.56302 10.439 5.9724C10.439 3.38178 8.33136 1.27414 5.74074 1.27414ZM4.80156 8.04574L3.38947 6.6367C3.20589 6.45351 3.20552 6.15619 3.38864 5.97254V5.97254C3.57189 5.78878 3.86943 5.78844 4.05309 5.97178L4.80062 6.71801L6.95571 4.56292C7.13916 4.37947 7.43659 4.37947 7.62004 4.56292V4.56292C7.80349 4.74637 7.80349 5.0438 7.62004 5.22725L4.80156 8.04574Z" fill="#2FAB73"/>
</svg>
