<svg width="12" height="12" viewBox="0 0 12 12" fill="none" xmlns="http://www.w3.org/2000/svg">
<g clip-path="url(#clip0_110_797)">
<path d="M5.74074 0.989838C3.15012 0.989838 1.04248 3.09748 1.04248 5.68809C1.04248 8.27871 3.15012 10.3864 5.74074 10.3864C8.33136 10.3864 10.439 8.27871 10.439 5.68809C10.439 3.09748 8.33136 0.989838 5.74074 0.989838ZM4.80156 7.76144L3.38947 6.35239C3.20589 6.1692 3.20552 5.87189 3.38864 5.68824V5.68824C3.57189 5.50448 3.86943 5.50414 4.05309 5.68748L4.80062 6.43371L6.95571 4.27862C7.13916 4.09517 7.43659 4.09517 7.62004 4.27862V4.27862C7.80349 4.46207 7.80349 4.7595 7.62004 4.94295L4.80156 7.76144Z" fill="#2FAB73"/>
</g>
<defs>
<clipPath id="clip0_110_797">
<rect width="11.2758" height="11.2758" fill="white" transform="translate(0.102539 0.0501709)"/>
</clipPath>
</defs>
</svg>
