<svg width="7" height="8" viewBox="0 0 7 8" fill="none" xmlns="http://www.w3.org/2000/svg">
<path d="M3.12397 5.25634C3.08703 5.25641 3.05044 5.24919 3.0163 5.23509C2.98216 5.22099 2.95114 5.20029 2.92502 5.17417L1.73131 3.98018C1.70442 3.95424 1.68296 3.92321 1.66819 3.88888C1.65342 3.85456 1.64563 3.81764 1.64528 3.78028C1.64493 3.74292 1.65202 3.70586 1.66614 3.67126C1.68027 3.63667 1.70114 3.60524 1.72754 3.5788C1.75395 3.55236 1.78535 3.53144 1.81992 3.51727C1.8545 3.50309 1.89154 3.49595 1.92891 3.49625C1.96627 3.49654 2.0032 3.50428 2.03755 3.519C2.07189 3.53373 2.10295 3.55514 2.12893 3.582L3.12368 4.57675L4.9148 2.7862C4.96757 2.73339 5.03915 2.70372 5.11379 2.70369C5.18844 2.70366 5.26004 2.73329 5.31284 2.78606C5.36565 2.83882 5.39532 2.9104 5.39535 2.98505C5.39538 3.0597 5.36575 3.1313 5.31298 3.1841L3.32292 5.17417C3.2968 5.20029 3.26578 5.22099 3.23163 5.23509C3.19749 5.24919 3.1609 5.25641 3.12397 5.25634V5.25634Z" fill="#2FAB73"/>
</svg>
