<svg width="8" height="8" viewBox="0 0 8 8" fill="none" xmlns="http://www.w3.org/2000/svg">
<g clip-path="url(#clip0_110_891)">
<path d="M6.93622 2.9656L5.07234 2.69472L4.23913 1.00555C4.21637 0.959302 4.17893 0.921863 4.13269 0.899106C4.0167 0.841846 3.87575 0.889563 3.81776 1.00555L2.98455 2.69472L1.12066 2.9656C1.06928 2.97295 1.02229 2.99717 0.986323 3.03388C0.942836 3.07857 0.918872 3.13871 0.919698 3.20106C0.920524 3.26342 0.946072 3.3229 0.990727 3.36642L2.33927 4.6812L2.02067 6.53775C2.0132 6.58094 2.01798 6.62535 2.03447 6.66596C2.05096 6.70657 2.07849 6.74175 2.11395 6.7675C2.14942 6.79326 2.19139 6.80856 2.2351 6.81168C2.27882 6.8148 2.32254 6.8056 2.3613 6.78514L4.02844 5.90862L5.69559 6.78514C5.74111 6.80937 5.79396 6.81744 5.84461 6.80863C5.97235 6.78661 6.05824 6.66548 6.03621 6.53775L5.71761 4.6812L7.06616 3.36642C7.10287 3.33045 7.12709 3.28347 7.13443 3.23208C7.15425 3.10362 7.06469 2.98469 6.93622 2.9656V2.9656Z" fill="#FEA250"/>
</g>
<defs>
<clipPath id="clip0_110_891">
<rect width="7.51721" height="7.51721" fill="white" transform="translate(0.270264 0.373535)"/>
</clipPath>
</defs>
</svg>
