<svg width="7" height="7" viewBox="0 0 7 7" fill="none" xmlns="http://www.w3.org/2000/svg">
<path d="M3.17524 4.74419C3.1383 4.74426 3.10171 4.73704 3.06757 4.72294C3.03343 4.70884 3.0024 4.68814 2.97628 4.66202L1.78258 3.46804C1.75569 3.4421 1.73423 3.41106 1.71946 3.37674C1.70468 3.34242 1.6969 3.3055 1.69655 3.26813C1.69619 3.23077 1.70329 3.19371 1.71741 3.15912C1.73154 3.12453 1.75241 3.09309 1.77881 3.06665C1.80522 3.04021 1.83662 3.0193 1.87119 3.00512C1.90576 2.99095 1.94281 2.9838 1.98018 2.9841C2.01754 2.9844 2.05447 2.99213 2.08882 3.00686C2.12316 3.02158 2.15422 3.043 2.1802 3.06985L3.17495 4.06461L4.96607 2.27405C5.01884 2.22125 5.09042 2.19157 5.16506 2.19154C5.23971 2.19152 5.31131 2.22115 5.36411 2.27391C5.41692 2.32668 5.44659 2.39825 5.44662 2.4729C5.44665 2.54755 5.41702 2.61915 5.36425 2.67195L3.37419 4.66202C3.34807 4.68814 3.31705 4.70884 3.2829 4.72294C3.24876 4.73704 3.21217 4.74426 3.17524 4.74419V4.74419Z" fill="#2FAB73"/>
</svg>
