<svg width="12" height="12" viewBox="0 0 12 12" fill="none" xmlns="http://www.w3.org/2000/svg">
<path d="M5.74074 1.13199C3.15012 1.13199 1.04248 3.23963 1.04248 5.83025C1.04248 8.42086 3.15012 10.5285 5.74074 10.5285C8.33136 10.5285 10.439 8.42086 10.439 5.83025C10.439 3.23963 8.33136 1.13199 5.74074 1.13199ZM4.80156 7.90359L3.38947 6.49454C3.20589 6.31135 3.20552 6.01404 3.38864 5.83039V5.83039C3.57189 5.64663 3.86943 5.64629 4.05309 5.82963L4.80062 6.57586L6.95571 4.42077C7.13916 4.23732 7.43659 4.23732 7.62004 4.42077V4.42077C7.80349 4.60422 7.80349 4.90165 7.62004 5.0851L4.80156 7.90359Z" fill="#2FAB73"/>
</svg>
