<svg width="12" height="13" viewBox="0 0 12 13" fill="none" xmlns="http://www.w3.org/2000/svg">
<path d="M5.74074 1.84769C3.15012 1.84769 1.04248 3.95532 1.04248 6.54594C1.04248 9.13656 3.15012 11.2442 5.74074 11.2442C8.33136 11.2442 10.439 9.13656 10.439 6.54594C10.439 3.95532 8.33136 1.84769 5.74074 1.84769ZM4.80156 8.61928L3.38947 7.21024C3.20589 7.02705 3.20552 6.72974 3.38864 6.54609V6.54609C3.57189 6.36233 3.86943 6.36199 4.05309 6.54533L4.80062 7.29156L6.95571 5.13647C7.13916 4.95302 7.43659 4.95302 7.62004 5.13647V5.13647C7.80349 5.31992 7.80349 5.61735 7.62004 5.8008L4.80156 8.61928Z" fill="#2FAB73"/>
</svg>
