<svg width="8" height="8" viewBox="0 0 8 8" fill="none" xmlns="http://www.w3.org/2000/svg">
<path d="M5.9423 3.30074C5.9423 3.04206 5.89135 2.78592 5.79236 2.54693C5.69336 2.30794 5.54827 2.09079 5.36536 1.90788C5.18244 1.72496 4.96529 1.57987 4.7263 1.48088C4.48732 1.38188 4.23117 1.33093 3.97249 1.33093C3.71381 1.33093 3.45767 1.38188 3.21868 1.48088C2.97969 1.57987 2.76254 1.72496 2.57963 1.90788C2.39672 2.09079 2.25162 2.30794 2.15263 2.54693C2.05364 2.78592 2.00269 3.04206 2.00269 3.30074C2.00269 3.69104 2.11806 4.05405 2.31363 4.36021H2.31138C2.97549 5.39999 3.97249 6.95895 3.97249 6.95895L5.6336 4.36021H5.63163C5.83436 4.04402 5.94217 3.67634 5.9423 3.30074V3.30074ZM3.97249 4.14494C3.7486 4.14494 3.53387 4.056 3.37555 3.89768C3.21723 3.73936 3.12829 3.52464 3.12829 3.30074C3.12829 3.07684 3.21723 2.86212 3.37555 2.7038C3.53387 2.54548 3.7486 2.45654 3.97249 2.45654C4.19639 2.45654 4.41112 2.54548 4.56943 2.7038C4.72775 2.86212 4.8167 3.07684 4.8167 3.30074C4.8167 3.52464 4.72775 3.73936 4.56943 3.89768C4.41112 4.056 4.19639 4.14494 3.97249 4.14494Z" fill="#F53838"/>
</svg>
