<svg width="8" height="8" viewBox="0 0 8 8" fill="none" xmlns="http://www.w3.org/2000/svg">
<path fill-rule="evenodd" clip-rule="evenodd" d="M3.92993 3.80722C4.19861 3.80722 4.45628 3.70048 4.64626 3.5105C4.83624 3.32052 4.94297 3.06285 4.94297 2.79417C4.94297 2.5255 4.83624 2.26782 4.64626 2.07784C4.45628 1.88786 4.19861 1.78113 3.92993 1.78113C3.66125 1.78113 3.40358 1.88786 3.2136 2.07784C3.02362 2.26782 2.91689 2.5255 2.91689 2.79417C2.91689 3.06285 3.02362 3.32052 3.2136 3.5105C3.40358 3.70048 3.66125 3.80722 3.92993 3.80722ZM2.49441 6.84635C1.98175 6.84635 1.54991 6.4154 1.74609 5.94177V5.94177C1.86488 5.65499 2.039 5.39441 2.25849 5.17491C2.47799 4.95541 2.73857 4.7813 3.02536 4.66251C3.31214 4.54372 3.61952 4.48258 3.92993 4.48258C4.24035 4.48258 4.54772 4.54372 4.83451 4.66251C5.12129 4.7813 5.38187 4.95541 5.60137 5.17491C5.82086 5.39441 5.99498 5.65499 6.11377 5.94177V5.94177C6.30995 6.4154 5.87811 6.84635 5.36546 6.84635H2.49441Z" fill="#F53838"/>
</svg>
