<svg width="12" height="12" viewBox="0 0 12 12" fill="none" xmlns="http://www.w3.org/2000/svg">
<path d="M5.03939 7.99492C4.97772 7.99504 4.91663 7.98299 4.85963 7.95944C4.80262 7.9359 4.75083 7.90134 4.70722 7.85773L2.71422 5.86426C2.66932 5.82095 2.63349 5.76913 2.60883 5.71183C2.58417 5.65453 2.57116 5.59288 2.57058 5.5305C2.56999 5.46812 2.58184 5.40625 2.60542 5.34849C2.629 5.29073 2.66385 5.23825 2.70793 5.19411C2.75201 5.14996 2.80444 5.11504 2.86217 5.09138C2.91989 5.06771 2.98175 5.05578 3.04413 5.05628C3.10651 5.05678 3.16817 5.06969 3.22551 5.09428C3.28285 5.11886 3.33471 5.15461 3.37809 5.19945L5.03892 6.86029L8.02936 3.87079C8.11746 3.78263 8.23697 3.73308 8.3616 3.73303C8.48623 3.73299 8.60577 3.78246 8.69393 3.87055C8.78209 3.95865 8.83164 4.07816 8.83168 4.20279C8.83173 4.32742 8.78226 4.44696 8.69416 4.53512L5.37156 7.85773C5.32795 7.90134 5.27616 7.9359 5.21915 7.95944C5.16215 7.98299 5.10106 7.99504 5.03939 7.99492V7.99492Z" fill="#2FAB73"/>
</svg>
