<svg width="27" height="26" viewBox="0 0 27 26" fill="none" xmlns="http://www.w3.org/2000/svg">
<rect x="0.265137" y="0.156769" width="25.8404" height="25.8404" rx="12.9202" fill="#FFECEC"/>
<path d="M16.9439 8.84853H9.42671C9.1775 8.84853 8.9385 8.94752 8.76228 9.12374C8.58606 9.29996 8.48706 9.53897 8.48706 9.78818V11.6675C8.48706 11.9167 8.58606 12.1557 8.76228 12.3319C8.9385 12.5081 9.1775 12.6071 9.42671 12.6071H16.9439C17.1931 12.6071 17.4321 12.5081 17.6084 12.3319C17.7846 12.1557 17.8836 11.9167 17.8836 11.6675V9.78818C17.8836 9.53897 17.7846 9.29996 17.6084 9.12374C17.4321 8.94752 17.1931 8.84853 16.9439 8.84853ZM14.5948 10.7278C14.5948 10.9873 14.3844 11.1977 14.125 11.1977V11.1977C13.8655 11.1977 13.6551 10.9873 13.6551 10.7278V10.7278C13.6551 10.4684 13.8655 10.258 14.125 10.258V10.258C14.3844 10.258 14.5948 10.4684 14.5948 10.7278V10.7278ZM16.4741 10.7278C16.4741 10.9873 16.2637 11.1977 16.0043 11.1977V11.1977C15.7448 11.1977 15.5344 10.9873 15.5344 10.7278V10.7278C15.5344 10.4684 15.7448 10.258 16.0043 10.258V10.258C16.2637 10.258 16.4741 10.4684 16.4741 10.7278V10.7278ZM16.9439 13.5468H9.42671C9.1775 13.5468 8.9385 13.6458 8.76228 13.822C8.58606 13.9982 8.48706 14.2372 8.48706 14.4864V16.3657C8.48706 16.6149 8.58606 16.854 8.76228 17.0302C8.9385 17.2064 9.1775 17.3054 9.42671 17.3054H16.9439C17.1931 17.3054 17.4321 17.2064 17.6084 17.0302C17.7846 16.854 17.8836 16.6149 17.8836 16.3657V14.4864C17.8836 14.2372 17.7846 13.9982 17.6084 13.822C17.4321 13.6458 17.1931 13.5468 16.9439 13.5468ZM14.5948 15.4261C14.5948 15.6856 14.3844 15.8959 14.125 15.8959V15.8959C13.8655 15.8959 13.6551 15.6856 13.6551 15.4261V15.4261C13.6551 15.1666 13.8655 14.9563 14.125 14.9563V14.9563C14.3844 14.9563 14.5948 15.1666 14.5948 15.4261V15.4261ZM16.4741 15.4261C16.4741 15.6856 16.2637 15.8959 16.0043 15.8959V15.8959C15.7448 15.8959 15.5344 15.6856 15.5344 15.4261V15.4261C15.5344 15.1666 15.7448 14.9563 16.0043 14.9563V14.9563C16.2637 14.9563 16.4741 15.1666 16.4741 15.4261V15.4261Z" fill="#F53838"/>
</svg>
