<svg width="34" height="34" viewBox="0 0 34 34" fill="none" xmlns="http://www.w3.org/2000/svg">
<g filter="url(#filter0_d_110_905)">
<circle cx="16.7882" cy="11.0844" r="7.89304" fill="#F53838"/>
</g>
<path d="M19.2547 11.0845C19.2547 11.7387 18.9948 12.366 18.5322 12.8286C18.0697 13.2912 17.4423 13.5511 16.7881 13.5511C16.1339 13.5511 15.5065 13.2912 15.044 12.8286C14.5814 12.366 14.3215 11.7387 14.3215 11.0845C14.3215 10.9439 14.3363 10.8066 14.3618 10.6734H13.4993V13.9597C13.4993 14.1883 13.6843 14.3733 13.9129 14.3733H19.6641C19.7737 14.373 19.8787 14.3294 19.956 14.2518C20.0334 14.1743 20.0769 14.0692 20.0769 13.9597V10.6734H19.2144C19.2399 10.8066 19.2547 10.9439 19.2547 11.0845V11.0845ZM16.7881 12.7289C17.0041 12.7288 17.218 12.6862 17.4175 12.6035C17.617 12.5208 17.7983 12.3996 17.951 12.2468C18.1037 12.0941 18.2248 11.9127 18.3074 11.7131C18.39 11.5135 18.4325 11.2997 18.4325 11.0837C18.4324 10.8677 18.3898 10.6538 18.3071 10.4542C18.2244 10.2547 18.1032 10.0734 17.9504 9.92073C17.7977 9.76803 17.6163 9.64692 17.4167 9.56431C17.2172 9.4817 17.0033 9.43921 16.7873 9.43927C16.351 9.43938 15.9327 9.61277 15.6243 9.92131C15.316 10.2298 15.1428 10.6483 15.1429 11.0845C15.143 11.5207 15.3164 11.939 15.6249 12.2474C15.9335 12.5558 16.3519 12.729 16.7881 12.7289V12.7289ZM18.7614 9.35787H19.7472C19.8127 9.35787 19.8755 9.33191 19.9219 9.28567C19.9683 9.23944 19.9944 9.1767 19.9947 9.11121V8.1254C19.9947 8.05976 19.9686 7.99682 19.9222 7.9504C19.8758 7.90399 19.8128 7.87792 19.7472 7.87792H18.7614C18.6957 7.87792 18.6328 7.90399 18.5864 7.9504C18.54 7.99682 18.5139 8.05976 18.5139 8.1254V9.11121C18.5147 9.24687 18.6257 9.35787 18.7614 9.35787V9.35787ZM16.7881 3.19141C14.6947 3.19141 12.6871 4.023 11.2068 5.50323C9.72661 6.98347 8.89502 8.99111 8.89502 11.0845C8.89502 13.1779 9.72661 15.1855 11.2068 16.6657C12.6871 18.146 14.6947 18.9776 16.7881 18.9776C17.8246 18.9776 18.851 18.7734 19.8086 18.3767C20.7663 17.9801 21.6364 17.3987 22.3693 16.6657C23.1023 15.9328 23.6837 15.0627 24.0803 14.105C24.477 13.1474 24.6812 12.121 24.6812 11.0845C24.6812 10.0479 24.477 9.02156 24.0803 8.06393C23.6837 7.1063 23.1023 6.23617 22.3693 5.50323C21.6364 4.77029 20.7663 4.18889 19.8086 3.79223C18.851 3.39557 17.8246 3.19141 16.7881 3.19141V3.19141ZM20.8991 14.282C20.8991 14.7844 20.488 15.1955 19.9856 15.1955H13.5906C13.0882 15.1955 12.6771 14.7844 12.6771 14.282V7.88696C12.6771 7.3846 13.0882 6.9735 13.5906 6.9735H19.9856C20.488 6.9735 20.8991 7.3846 20.8991 7.88696V14.282V14.282Z" fill="white"/>
<defs>
<filter id="filter0_d_110_905" x="0.43828" y="0.842278" width="32.6999" height="32.6999" filterUnits="userSpaceOnUse" color-interpolation-filters="sRGB">
<feFlood flood-opacity="0" result="BackgroundImageFix"/>
<feColorMatrix in="SourceAlpha" type="matrix" values="0 0 0 0 0 0 0 0 0 0 0 0 0 0 0 0 0 0 127 0" result="hardAlpha"/>
<feOffset dy="6.10773"/>
<feGaussianBlur stdDeviation="4.22843"/>
<feColorMatrix type="matrix" values="0 0 0 0 0.0658854 0 0 0 0 0.0730469 0 0 0 0 0.1375 0 0 0 0.08 0"/>
<feBlend mode="normal" in2="BackgroundImageFix" result="effect1_dropShadow_110_905"/>
<feBlend mode="normal" in="SourceGraphic" in2="effect1_dropShadow_110_905" result="shape"/>
</filter>
</defs>
</svg>
