<svg width="17" height="18" viewBox="0 0 17 18" fill="none" xmlns="http://www.w3.org/2000/svg">
<path d="M15.1635 7.16059L15.1532 7.15036C15.1524 7.14979 15.1517 7.14902 15.1513 7.14814L8.75189 0.748535L2.35251 7.14797C2.35177 7.14872 2.35061 7.1502 2.35061 7.1502L2.34005 7.16043C1.3615 8.14447 0.73995 9.42739 0.574211 10.8053C0.408471 12.1831 0.708055 13.5768 1.42533 14.7649C2.14262 15.953 3.23643 16.8672 4.5329 17.3622C5.82937 17.8571 7.25409 17.9045 8.58058 17.4968C8.6922 17.4626 8.8115 17.4626 8.92314 17.4968C10.2495 17.9044 11.6742 17.8569 12.9705 17.3619C14.2669 16.8669 15.3606 15.9527 16.0779 14.7647C16.7951 13.5768 17.0947 12.1831 16.929 10.8053C16.7634 9.42755 16.1419 8.14465 15.1635 7.16059ZM4.62804 11.3806C4.59689 11.4118 4.57219 11.4488 4.55534 11.4894C4.53848 11.5301 4.52981 11.5737 4.52981 11.6178C4.5412 12.7472 4.8604 13.8522 5.45306 14.8137C5.46652 14.8356 5.47274 14.8611 5.47083 14.8866C5.46893 14.9122 5.45899 14.9364 5.44243 14.956C5.42588 14.9756 5.40356 14.9894 5.37867 14.9955C5.35378 15.0016 5.3276 14.9997 5.30386 14.9901C4.85832 14.8027 4.45356 14.5302 4.11223 14.1881C3.41273 13.4884 3.01948 12.5397 3.01885 11.5504C3.01821 10.5611 3.41024 9.6119 4.10885 8.91142L8.75189 4.26881L13.3947 8.91142C14.0934 9.61182 14.4856 10.561 14.4849 11.5504C14.4843 12.5397 14.091 13.4884 13.3915 14.1881C13.0501 14.5302 12.6454 14.8027 12.1999 14.9901C12.1761 14.9997 12.1499 15.0016 12.1251 14.9955C12.1002 14.9894 12.0779 14.9755 12.0613 14.956C12.0448 14.9364 12.0348 14.9122 12.0329 14.8865C12.031 14.861 12.0372 14.8355 12.0506 14.8137C12.6434 13.8522 12.9628 12.7472 12.9743 11.6178C12.9743 11.5737 12.9656 11.5301 12.9486 11.4893C12.9317 11.4486 12.9069 11.4117 12.8757 11.3805L10.6796 9.05117C10.6577 9.03291 10.6302 9.02291 10.6017 9.02291C10.5733 9.02291 10.5457 9.03291 10.5239 9.05117C10.502 9.06935 10.4873 9.09472 10.4821 9.12273C10.477 9.15074 10.4819 9.17958 10.4959 9.20437C11.3488 10.7478 10.6154 12.9648 9.39232 14.1881L9.38587 14.1945C9.21706 14.3615 8.98916 14.4551 8.75172 14.455C8.51425 14.455 8.28641 14.3612 8.11772 14.1941L8.11178 14.1881C6.88824 12.9648 6.15519 10.7481 7.00824 9.2047C7.02226 9.17991 7.02716 9.15107 7.02205 9.12306C7.01695 9.09505 7.00218 9.06968 6.98033 9.0515C6.95847 9.03324 6.93092 9.02324 6.90245 9.02324C6.87398 9.02324 6.84642 9.03324 6.82456 9.0515L4.62804 11.3806Z" fill="#F53838"/>
</svg>
